<?xml version="1.0" encoding="UTF-8"?>
<svg width="108px" height="60px" viewBox="0 0 108 60" version="1.1" xmlns="http://www.w3.org/2000/svg" xmlns:xlink="http://www.w3.org/1999/xlink">
    <!-- Generator: Sketch 48.2 (47327) - http://www.bohemiancoding.com/sketch -->
    <title>logox@3x</title>
    <desc>Created with Sketch.</desc>
    <defs>
        <linearGradient x1="21.3384271%" y1="48.4486662%" x2="94.7999596%" y2="50%" id="linearGradient-1">
            <stop stop-color="#6439FF" offset="0%"></stop>
            <stop stop-color="#A317CE" offset="100%"></stop>
        </linearGradient>
        <path d="M23.1090909,0.569285714 C21.1970909,0.57 19.3381818,1.18142857 17.8072727,2.30214286 C17.5934545,2.23928571 17.376,2.18357143 17.1585455,2.13714286 C16.5250909,2.00071429 15.8792727,1.93214286 15.2363636,1.93214286 C11.0996364,1.935 7.45236364,4.82142857 6.56436364,8.795 C6.48654545,9.14214286 6.43054545,9.49571429 6.39709091,9.85285714 C3.29527273,10.7421429 0.913454545,13.215 0.210181818,16.3635714 C-0.298909091,18.6421429 0.125090909,20.98 1.40509091,22.945 C2.68581818,24.91 4.66909091,26.2678571 6.98909091,26.7678571 C8.01890909,26.99 9.08145455,27.0307143 10.1185455,26.8892857 C11.3789091,28.9142857 13.4036364,30.3407143 15.7912727,30.8564286 C17.2698182,31.1757143 18.8116364,31.1164286 20.2392727,30.6964286 C20.112,32.5464286 20.5876364,34.3814286 21.624,35.9721429 C22.9047273,37.9364286 24.8872727,39.295 27.2072727,39.795 C27.8370909,39.9314286 28.48,40 29.1185455,40 L29.1287273,40 C31.4552727,39.9985714 33.6741818,39.1007143 35.3287273,37.5142857 C35.5178182,37.5671429 35.7076364,37.615 35.8981818,37.6564286 C36.5301818,37.7921429 37.1767273,37.8614286 37.8196364,37.8607143 C41.9556364,37.8578571 45.6036364,34.9714286 46.4916364,30.9978571 C46.9738182,28.8457143 46.6050909,26.6064286 45.4829091,24.7207143 C46.4218182,23.6364286 47.0749091,22.3457143 47.3898182,20.9385714 C48.36,16.6021429 45.9156364,12.3407143 41.7563636,10.8621429 C41.5163636,7.00642857 38.704,3.72357143 34.7876364,2.87857143 C33.0509091,2.50428571 31.2225455,2.655 29.5789091,3.30071429 C28.36,2.03571429 26.7738182,1.15 25.0298182,0.774285714 C24.3978182,0.637857143 23.7512727,0.569285714 23.1090909,0.569285714 Z" id="path-2"></path>
    </defs>
    <g id="SSDI-icon" stroke="none" stroke-width="1" fill="none" fill-rule="evenodd">
        <g id="logox">
            <g id="Group-7">
                <text id="思源黑体" font-family="SourceHanSansCN-ExtraLight, Source Han Sans CN" font-size="12" font-weight="300" fill="#333333">
                    <tspan x="0" y="59">人人都是数据分析师</tspan>
                </text>
                <g id="粗" transform="translate(6.000000, 0.000000)">
                    <g id="Group" transform="translate(55.000000, 30.000000)" fill="#333333">
                        <path d="M0.231724138,2.67239583 C0.386689655,2.56302083 0.574241379,2.50760417 0.792206897,2.506875 C1.01089655,2.506875 1.19917241,2.56229167 1.35775862,2.67166667 C1.51489655,2.78104167 1.59455172,2.91375 1.59455172,3.06833333 C1.59527586,3.1675 1.6227931,3.2615625 1.67710345,3.34979167 C1.73141379,3.43729167 1.80527586,3.513125 1.8957931,3.57802083 C1.98703448,3.64291667 2.09493103,3.69395833 2.21948276,3.73260417 C2.34403448,3.77125 2.47655172,3.7909375 2.61631034,3.7909375 C2.75534483,3.79020833 2.88786207,3.77125 3.01241379,3.73260417 C3.13696552,3.69322917 3.24631034,3.64145833 3.34044828,3.5765625 C3.43458621,3.51239583 3.50917241,3.4365625 3.5642069,3.34833333 C3.61851724,3.26010417 3.64603448,3.16604167 3.64531034,3.066875 L3.64386207,0.5621875 C3.64386207,0.407604167 3.72062069,0.274895833 3.87558621,0.165520833 C4.03055172,0.0554166667 4.21737931,0 4.43606897,0 C4.65475862,0 4.84303448,0.0546875 5.00162069,0.164791667 C5.1602069,0.2734375 5.23841379,0.406145833 5.23841379,0.560729167 L5.23986207,3.06541667 C5.24058621,3.31989583 5.17251724,3.55979167 5.03565517,3.78583333 C4.8987931,4.011875 4.71268966,4.20802083 4.47589655,4.3771875 C4.23910345,4.54416667 3.96103448,4.67833333 3.64168966,4.77822917 C3.32306897,4.87666667 2.98127586,4.92697917 2.61703448,4.92697917 C2.25786207,4.92697917 1.91968966,4.87739583 1.60106897,4.7796875 C1.281,4.68052083 1.00293103,4.54708333 0.766137931,4.379375 C0.529344828,4.21166667 0.341793103,4.01479167 0.205655172,3.78947917 C0.0680689655,3.5634375 0.000724137931,3.32354167 0,3.06979167 C0,2.91447917 0.0767586207,2.78177083 0.231724138,2.67239583" id="Fill-4"></path>
                        <path d="M8.47,4.37645833 C8.47,4.51427083 8.39975862,4.633125 8.26072414,4.7315625 C8.12096552,4.83072917 7.95368966,4.8803125 7.75962069,4.8803125 C7.66186207,4.8803125 7.57134483,4.86791667 7.48589655,4.84239583 C7.40044828,4.816875 7.32658621,4.78114583 7.26286207,4.73520833 C7.19841379,4.69072917 7.14917241,4.63677083 7.11224138,4.5740625 C7.07531034,4.5128125 7.05793103,4.44645833 7.05793103,4.37791667 L7.05575862,1.763125 C7.05575862,1.62604167 7.12382759,1.50791667 7.26068966,1.41166667 C7.39755172,1.3146875 7.56265517,1.26583333 7.75744828,1.26510417 C7.85375862,1.26510417 7.94644828,1.27822917 8.0347931,1.30447917 C8.12313793,1.33 8.19917241,1.36572917 8.26289655,1.4109375 C8.32734483,1.45541667 8.37658621,1.50791667 8.41351724,1.5684375 C8.45044828,1.62822917 8.46782759,1.693125 8.46782759,1.76239583 L8.47,4.37645833 Z M7.21796552,0.156041667 C7.36424138,0.0517708333 7.54310345,0.000729166667 7.756,0 C7.96889655,0 8.1492069,0.0517708333 8.29837931,0.154583333 C8.44755172,0.258125 8.52213793,0.385 8.52213793,0.535208333 C8.52213793,0.686145833 8.44755172,0.814479167 8.29910345,0.920208333 C8.14993103,1.02520833 7.96962069,1.0784375 7.75672414,1.0784375 C7.54382759,1.07916667 7.36496552,1.0259375 7.21868966,0.9209375 C7.07241379,0.815208333 7,0.686875 7,0.536666667 C7,0.385729167 7.07241379,0.259583333 7.21796552,0.156041667 Z" id="Fill-6"></path>
                        <path d="M17.8944483,4.11397236 C17.7554138,4.31813903 17.5656897,4.4873057 17.3252759,4.6207432 C17.0855862,4.75490986 16.806069,4.8526182 16.4867241,4.91532653 C16.1673793,4.97803486 15.8284828,5.00938903 15.4700345,5.0101182 C15.1724138,5.0101182 14.8769655,4.97657653 14.5822414,4.91022236 C14.2875172,4.84313903 14.0224828,4.75563903 13.7893103,4.64553486 C13.5554138,4.53615986 13.3649655,4.41147236 13.2194138,4.27220153 C13.0731379,4.13220153 13,3.98709736 13,3.83615986 C13,3.68595153 13.0745862,3.5576182 13.2237586,3.45188903 C13.3722069,3.34615986 13.5532414,3.29365986 13.7654138,3.29365986 C13.924,3.29365986 14.0644828,3.3279307 14.1897586,3.39647236 C14.3143103,3.46501403 14.4446552,3.54157653 14.5815172,3.6254307 C14.7176552,3.7085557 14.8711724,3.78584736 15.042069,3.85438903 C15.2115172,3.9229307 15.415,3.95720153 15.6517931,3.95647236 C15.8103793,3.95647236 15.9443448,3.93678486 16.0529655,3.89522236 C16.1623103,3.85438903 16.249931,3.80553486 16.3172759,3.7501182 C16.3838966,3.69397236 16.4324138,3.6363682 16.4628276,3.57584736 C16.4932414,3.5160557 16.5091724,3.4635557 16.5091724,3.42126403 C16.5091724,3.28709736 16.4295172,3.1791807 16.2716552,3.09532653 C16.113069,3.0107432 15.9342069,2.9451182 15.7336207,2.89845153 L14.9587931,2.73147236 C14.7277931,2.67897236 14.5076552,2.6169932 14.2976552,2.5448057 C14.0883793,2.47115986 13.9044483,2.3829307 13.7465862,2.27938903 C13.588,2.1773057 13.462,2.0569932 13.3678621,1.91845153 C13.273,1.7813682 13.2266552,1.6238682 13.2266552,1.44813903 C13.225931,1.19803486 13.2896552,0.981472362 13.4171034,0.798451529 C13.5445517,0.616159862 13.7176207,0.465222362 13.9363103,0.346368195 C14.155,0.228243195 14.407,0.140743195 14.6923103,0.0845973619 C14.9783448,0.0284515286 15.2788621,1.40285881e-05 15.5945862,1.40285881e-05 C15.9226207,-0.000715138079 16.2231379,0.0269931953 16.4968621,0.0802223619 C16.7698621,0.133451529 17.0052069,0.204909862 17.2043448,0.292409862 C17.4013103,0.380639029 17.5548276,0.481264029 17.6648966,0.592097362 C17.7735172,0.704389029 17.8278276,0.818139029 17.8278276,0.934805695 C17.8278276,1.12001403 17.7633793,1.2498057 17.6330345,1.32490986 C17.5026897,1.4007432 17.3585862,1.4379307 17.2,1.4379307 C17.0848621,1.43865986 16.974069,1.42407653 16.8676207,1.39345153 C16.7611724,1.3635557 16.6742759,1.32490986 16.6076552,1.27751403 C16.5591379,1.2432432 16.4975862,1.20459736 16.4251724,1.16157653 C16.3520345,1.1185557 16.2702069,1.07772236 16.1789655,1.03834736 C16.0877241,0.999701529 15.9899655,0.968347362 15.8871379,0.942097362 C15.7835862,0.916576529 15.6771379,0.904180695 15.5677931,0.904180695 C15.3737241,0.904180695 15.199931,0.947930695 15.0485862,1.03615986 C14.8965172,1.12438903 14.8204828,1.23595153 14.8212069,1.36865986 C14.8212069,1.41240986 14.8306207,1.45470153 14.8487241,1.4948057 C14.8668276,1.5363682 14.9001379,1.5735557 14.9493793,1.60782653 C14.9971724,1.64209736 15.0659655,1.6763682 15.1543103,1.71063903 C15.241931,1.74563903 15.3556207,1.77772236 15.4953793,1.8076182 L16.3071379,1.98115986 C16.5555172,2.0329307 16.7901379,2.09709736 17.0088276,2.17438903 C17.2282414,2.2516807 17.4179655,2.34647236 17.5787241,2.45803486 C17.7402069,2.56959736 17.8676552,2.70157653 17.9617931,2.85178486 C18.055931,3.00272236 18.103,3.17845153 18.1037241,3.3804307 C18.1037241,3.6648057 18.0334828,3.9098057 17.8944483,4.11397236" id="Fill-8"></path>
                        <path d="M23.2986026,1.11010417 C23.5382922,1.03645833 23.8076716,1.00072917 24.1052922,1 C24.3971198,1 24.6730164,1.039375 24.9344302,1.11885417 C25.195844,1.19833333 25.4224991,1.30625 25.6136716,1.44114583 C25.804844,1.57677083 25.9569129,1.735 26.0691543,1.91802083 C26.1821198,2.10104167 26.2386026,2.29572917 26.2386026,2.50208333 L26.2400509,4.14854167 C26.2400509,4.28635417 26.1705336,4.40520833 26.0300509,4.50364583 C25.8902922,4.6028125 25.7237405,4.65239583 25.5289474,4.65239583 C25.3348784,4.65239583 25.1690509,4.60354167 25.0329129,4.504375 C24.8953267,4.4059375 24.8272578,4.28708333 24.8272578,4.15 L24.8258095,2.50354167 C24.8258095,2.36645833 24.754844,2.24760417 24.6114647,2.1484375 C24.4688095,2.05 24.3000853,2.00041667 24.1060164,2.00041667 C23.9054302,2.00114583 23.7352578,2.05 23.5954991,2.14916667 C23.4557405,2.2490625 23.3854991,2.3671875 23.3854991,2.50427083 L23.3869474,4.15072917 C23.3869474,4.22 23.3695681,4.28489583 23.3326371,4.34760417 C23.2964302,4.40958333 23.2464647,4.46427083 23.1820164,4.50875 C23.1182922,4.5546875 23.043706,4.5896875 22.9589819,4.6159375 C22.8735336,4.6421875 22.7822922,4.65458333 22.6852578,4.65458333 C22.4911888,4.65458333 22.3239129,4.60572917 22.1841543,4.5065625 C22.0443957,4.40739583 21.9748784,4.28927083 21.9748784,4.1521875 L21.9734302,2.50572917 C21.9734302,2.36864583 21.9031888,2.2490625 21.7634302,2.150625 C21.6236716,2.05145833 21.4534991,2.00260417 21.2536371,2.00260417 C21.058844,2.00260417 20.8915681,2.0521875 20.7518095,2.15135417 C20.6120509,2.24979167 20.5418095,2.369375 20.5418095,2.50645833 L20.5432578,4.15291667 C20.5432578,4.29072917 20.4737405,4.40885417 20.3339819,4.50802083 C20.1942233,4.6071875 20.0269474,4.65677083 19.8328784,4.65677083 C19.6380853,4.65677083 19.4729819,4.60791667 19.3361198,4.50875 C19.1992578,4.40958333 19.1311888,4.29145833 19.1311888,4.15364583 L19.1297405,2.5071875 C19.1297405,2.30083333 19.1854991,2.10614583 19.2977405,1.923125 C19.4099819,1.74010417 19.5620509,1.58114583 19.7532233,1.44552083 C19.9443957,1.30916667 20.1696026,1.20197917 20.4273957,1.1225 C20.6859129,1.04229167 20.9603612,1.00291667 21.2529129,1.0021875 C21.5563267,1.0021875 21.8271543,1.03791667 22.0639474,1.11083333 C22.3007405,1.18447917 22.5071198,1.27708333 22.6830853,1.38864583 C22.8532578,1.27708333 23.0581888,1.18375 23.2986026,1.11010417" id="Fill-10"></path>
                        <path d="M29.3935845,2.04125804 C29.2509293,2.08427888 29.1263776,2.14334138 29.0199293,2.21844554 C28.913481,2.29427888 28.8302052,2.38250804 28.7693776,2.48313304 C28.70855,2.58448721 28.6781362,2.69386221 28.6781362,2.80979971 C28.6788603,2.92573721 28.7092741,3.03438304 28.7701017,3.13573721 C28.8309293,3.23709138 28.9142052,3.32532054 29.0206534,3.39969554 C29.1271017,3.47552888 29.2516534,3.53459138 29.3943086,3.57688304 C29.5369638,3.61990388 29.690481,3.64104971 29.8548603,3.64104971 C30.0185155,3.64104971 30.1705845,3.61990388 30.3103431,3.57615388 C30.4501017,3.53313304 30.5732052,3.47407054 30.6789293,3.39823721 C30.7861017,3.32386221 30.8693776,3.23563304 30.9302052,3.13427888 C30.9910328,3.03219554 31.0214466,2.92427888 31.0207224,2.80761221 C31.0207224,2.69167471 30.9903086,2.58302888 30.929481,2.48167471 C30.8686534,2.38104971 30.7853776,2.29282054 30.6782052,2.21698721 C30.572481,2.14261221 30.4493776,2.08354971 30.309619,2.04052888 C30.1698603,1.99677888 30.0177914,1.97563304 29.8541362,1.97636221 C29.6897569,1.97636221 29.5362397,1.99750804 29.3935845,2.04125804 Z M32.4342397,4.11063304 C32.4342397,4.24844554 32.3661707,4.36657054 32.2293086,4.46573721 C32.0931707,4.56490388 31.9273431,4.61448721 31.73255,4.61448721 C31.5688948,4.61448721 31.4233431,4.57657054 31.2951707,4.49927888 C31.1677224,4.42198721 31.0887914,4.33740388 31.0583776,4.24698721 C31.03955,4.25573721 30.99755,4.27907054 30.9309293,4.31844554 C30.8635845,4.35782054 30.7708948,4.39938304 30.6528603,4.44459138 C30.5341017,4.48907054 30.3899983,4.52990388 30.22055,4.56417471 C30.0496534,4.59917471 29.8526879,4.61594554 29.627481,4.61594554 C29.3421707,4.61667471 29.0575845,4.57146638 28.7751707,4.48177888 C28.4927569,4.39136221 28.2407569,4.26594554 28.0191707,4.10407054 C27.7968603,3.94292471 27.6158259,3.75261221 27.4760672,3.53386221 C27.3355845,3.31438304 27.2660672,3.07302888 27.2660672,2.81052888 C27.2660672,2.54802888 27.3348603,2.30594554 27.4753431,2.08500804 C27.6143776,1.86261221 27.7946879,1.67157054 28.0169983,1.51188304 C28.2385845,1.35365388 28.4905845,1.22823721 28.7737224,1.13782054 C29.0554121,1.04740388 29.3399983,1.00146638 29.6253086,1.00146638 C29.8505155,1.00146638 30.047481,1.01823721 30.2183776,1.05323721 C30.3878259,1.08677888 30.5319293,1.12615388 30.6506879,1.17209138 C30.7687224,1.21657054 30.8614121,1.25886221 30.9287569,1.29750804 C30.9953776,1.33615388 31.0381017,1.35948721 31.0562052,1.36823721 C31.086619,1.27782054 31.16555,1.19396638 31.2929983,1.11594554 C31.4211707,1.03938304 31.5667224,1.00000804 31.7311017,1.00000804 C31.9251707,0.999278876 32.0909983,1.04813304 32.2271362,1.14511221 C32.3647224,1.24136221 32.4320672,1.35802888 32.4320672,1.49657054 L32.4342397,4.11063304 Z" id="Fill-12"></path>
                        <path d="M34.8744974,4.11208333 C34.8744974,4.24989583 34.804256,4.36875 34.6652216,4.4671875 C34.5254629,4.56635417 34.3581871,4.6159375 34.1641181,4.6159375 C33.969325,4.6159375 33.8034974,4.56708333 33.6673595,4.46791667 C33.5304974,4.36947917 33.4624284,4.250625 33.4624284,4.11354167 L33.460256,1.49875 C33.460256,1.36166667 33.528325,1.24354167 33.6651871,1.14729167 C33.8020491,1.0503125 33.9671526,1.00145833 34.1619457,1.00145833 C34.3140147,1.00072917 34.4487043,1.030625 34.5674629,1.09114583 C34.6854974,1.15166667 34.7687733,1.22020833 34.8180147,1.29822917 C34.8600147,1.275625 34.9186698,1.249375 34.9910836,1.2165625 C35.0642216,1.18447917 35.1460491,1.15239583 35.2372905,1.11958333 C35.3285319,1.08822917 35.4270147,1.0590625 35.5334629,1.03572917 C35.6399112,1.01239583 35.7536009,1 35.875256,1 C35.990394,1 36.1055319,1.013125 36.221394,1.03864583 C36.337256,1.06416667 36.4400836,1.100625 36.531325,1.14875 C36.6225664,1.19541667 36.6957043,1.25666667 36.7500147,1.33177083 C36.8050491,1.406875 36.8318422,1.4921875 36.8318422,1.58697917 C36.8318422,1.68177083 36.8079457,1.76708333 36.7594284,1.84510417 C36.7109112,1.92239583 36.6486353,1.98875 36.573325,2.04197917 C36.4965664,2.0959375 36.410394,2.13822917 36.3133595,2.168125 C36.216325,2.19875 36.1192905,2.21333333 36.0215319,2.21333333 C35.9179802,2.21333333 35.8318078,2.20385417 35.7622905,2.18416667 C35.6920491,2.16520833 35.6297733,2.14333333 35.5754629,2.11708333 C35.5204284,2.0915625 35.4668422,2.06822917 35.4154284,2.04927083 C35.3640147,2.0303125 35.3046353,2.02010417 35.2380147,2.02083333 C35.2076009,2.02083333 35.1706698,2.02375 35.1286698,2.03104167 C35.0859457,2.036875 35.0461181,2.05 35.0099112,2.06895833 C34.9737043,2.08864583 34.9418422,2.11927083 34.914325,2.159375 C34.8875319,2.20020833 34.8730491,2.25489583 34.8730491,2.32416667 L34.8744974,4.11208333 Z" id="Fill-14"></path>
                        <path d="M38.8622379,4.95920833 C38.7232034,4.86004167 38.6529621,4.74191667 38.6529621,4.60410417 L38.6507897,2.37722917 L38.4864103,2.37722917 C38.3104448,2.37722917 38.1612724,2.33420833 38.0403414,2.24816667 C37.9186862,2.162125 37.8578586,2.05858333 37.8578586,1.93827083 C37.8578586,1.8143125 37.9186862,1.70858333 38.0403414,1.6218125 C38.1612724,1.5365 38.3104448,1.49275 38.4864103,1.49275 L38.6507897,1.49275 L38.6500655,0.924729167 C38.6500655,0.855458333 38.668169,0.791291667 38.7043759,0.730770833 C38.7413069,0.67025 38.7912724,0.61775 38.8549966,0.572541667 C38.9187207,0.527333333 38.9954793,0.491604167 39.0831,0.466083333 C39.1714448,0.439833333 39.2634103,0.426708333 39.3597207,0.426708333 C39.5545138,0.426708333 39.7210655,0.4755625 39.8579276,0.5718125 C39.9940655,0.6680625 40.0628586,0.785458333 40.0628586,0.923270833 L40.0635828,1.49129167 L40.401031,1.49129167 C40.5704793,1.49129167 40.7167552,1.5343125 40.8384103,1.62035417 C40.9593414,1.70566667 41.020169,1.81139583 41.020169,1.93608333 C41.020169,2.057125 40.9593414,2.1599375 40.8384103,2.24597917 C40.7167552,2.33202083 40.5704793,2.37577083 40.401031,2.37577083 L40.0635828,2.37577083 L40.0657552,4.603375 C40.0657552,4.74045833 39.9969621,4.85858333 39.8608241,4.95847917 C39.7232379,5.05764583 39.5581345,5.1065 39.3633414,5.10722917 C39.1692724,5.10722917 39.0019966,5.05764583 38.8622379,4.95920833" id="Fill-16"></path>
                    </g>
                    <g id="Group-6">
                        <g id="Group-3">
                            <mask id="mask-3" fill="white">
                                <use xlink:href="#path-2"></use>
                            </mask>
                            <use id="Clip-2" fill="url(#linearGradient-1)" xlink:href="#path-2"></use>
                        </g>
                        <path d="M38.4708701,19.9723434 C37.5946632,19.1374476 36.8031804,18.0298434 36.7821804,16.9047392 C36.7619046,15.8066142 37.4911115,14.6909892 38.2999735,13.8298434 C39.9372494,12.0864059 39.8604908,9.33598922 38.129077,7.68734339 C36.3976632,6.03942672 33.6662149,6.11598922 32.028939,7.86015589 C30.3923873,9.60359339 30.4684218,12.3532809 32.1998356,14.0019267 C33.0760425,14.8360934 33.693008,15.7767184 33.7147321,16.9018226 C33.7313873,17.7957809 33.3628011,18.8085934 32.790008,19.6201559 C31.6668701,20.4236976 30.9434563,21.7522392 30.9709735,23.2441142 C30.9926977,24.4581767 30.7588011,25.5606767 29.976008,26.3634892 C29.2113183,27.1480726 27.912939,27.6460934 26.7354908,27.6686976 C24.353077,27.7124476 22.4572839,29.6928642 22.5007321,32.0925517 C22.5449046,34.4915101 24.5116632,36.4004684 26.8948011,36.3567184 C29.2772149,36.3122392 31.173008,34.3318226 31.1295597,31.9328642 C31.1071115,30.7180726 31.3381115,29.3742184 32.1216287,28.5706767 C32.8855942,27.7875517 34.1875942,27.5301559 35.3643183,27.5090101 C35.6800425,27.5031767 35.987077,27.4608851 36.2832494,27.3901559 C37.1543873,27.2304684 37.9864218,26.8126559 38.6417666,26.1141142 C40.2790425,24.3706767 40.203008,21.6209892 38.4708701,19.9723434" id="Fill-23" fill="#FFFFFF"></path>
                    </g>
                    <path d="M65.7000534,25.664 C65.5680527,25.722667 65.4177209,25.7629999 65.2490534,25.785 C65.0803858,25.8070001 64.9153875,25.7960002 64.7540534,25.752 C64.5927192,25.7079998 64.4423874,25.6236673 64.3030534,25.499 C64.1637193,25.3743327 64.0500538,25.1946678 63.9620534,24.96 C63.7127188,24.2119963 64.0060492,23.6546685 64.8420534,23.288 C66.2647271,22.6573302 67.445382,21.9240042 68.3840534,21.088 C67.4160485,19.9293275 66.5653904,18.6240073 65.8320534,17.172 C65.5240518,18.7120077 65.1133893,20.1053271 64.6000534,21.352 C64.0867175,22.5986729 63.4267241,23.7939943 62.6200534,24.938 C62.3707188,25.3046685 62.0773884,25.5429994 61.7400534,25.653 C61.4027183,25.7630006 61.0580551,25.7153344 60.7060534,25.51 C60.3247181,25.2606654 60.1193868,24.9600018 60.0900534,24.608 C60.0607199,24.2559982 60.178052,23.8893352 60.4420534,23.508 C61.1607236,22.5106617 61.751051,21.4730054 62.2130534,20.395 C62.6750557,19.3169946 63.0453853,18.1510063 63.3240534,16.897 C63.6027214,15.6429937 63.8007194,14.2716741 63.9180534,12.783 C64.0353873,11.2943259 64.1087199,9.64067576 64.1380534,7.822 L62.8400534,7.822 C62.3853844,7.822 62.0737209,7.7120011 61.9050534,7.492 C61.7363858,7.2719989 61.6520534,6.97133524 61.6520534,6.59 C61.6520534,6.17933128 61.7473857,5.86033447 61.9380534,5.633 C62.128721,5.40566553 62.4367179,5.292 62.8620534,5.292 L70.5400534,5.292 C71.3320573,5.292 71.9187181,5.50833117 72.3000534,5.941 C72.6813886,6.37366883 72.776721,6.98599604 72.5860534,7.778 L71.7500534,11.122 C71.7207199,11.2393339 71.7207199,11.3309997 71.7500534,11.397 C71.7793868,11.4630003 71.8747192,11.496 72.0360534,11.496 L72.8060534,11.496 C73.392723,11.496 73.8510517,11.6609983 74.1810534,11.991 C74.511055,12.3210016 74.6173873,12.9259956 74.5000534,13.806 C74.2800523,15.272674 73.9647221,16.5963274 73.5540534,17.777 C73.1433846,18.9576726 72.5860569,20.0319952 71.8820534,21 C72.2927221,21.3666685 72.7107179,21.7113317 73.1360534,22.034 C73.5613888,22.3566683 74.0087177,22.6646652 74.4780534,22.958 C74.947389,23.2513348 75.2223863,23.5483318 75.3030534,23.849 C75.3837204,24.1496682 75.3213877,24.4906648 75.1160534,24.872 C74.8373853,25.3413357 74.5477215,25.5979998 74.2470534,25.642 C73.9463852,25.6860002 73.561389,25.539335 73.0920534,25.202 C72.5347172,24.8206648 72.0103891,24.4393352 71.5190534,24.058 C71.0277176,23.6766648 70.5693888,23.288002 70.1440534,22.892 C68.9560474,23.9333385 67.4747289,24.8573293 65.7000534,25.664 Z M66.6680534,7.822 C66.6387199,8.7020044 66.6093868,9.53432941 66.5800534,10.319 C66.5507199,11.1036706 66.4993871,11.8699963 66.4260534,12.618 C66.9687227,14.0406738 67.540717,15.2726615 68.1420534,16.314 C68.7433897,17.3553385 69.3813833,18.2939958 70.0560534,19.13 C70.4813888,18.4699967 70.8333853,17.7476706 71.1120534,16.963 C71.3907214,16.1783294 71.6253857,15.2946716 71.8160534,14.312 C71.8600536,14.0773322 71.7793877,13.96 71.5740534,13.96 L71.0240534,13.96 C70.1000487,13.96 69.4987214,13.7583354 69.2200534,13.355 C68.9413853,12.9516646 68.8900525,12.3246709 69.0660534,11.474 C69.2127208,10.8579969 69.3483861,10.2713361 69.4730534,9.714 C69.5977206,9.15666388 69.7187194,8.66533546 69.8360534,8.24 C69.8947203,7.96133194 69.7480551,7.822 69.3960534,7.822 L66.6680534,7.822 Z M55.3820534,10.748 C54.9713846,10.748 54.6670543,10.6306678 54.4690534,10.396 C54.2710524,10.1613322 54.1720534,9.85333524 54.1720534,9.472 C54.1720534,8.63599582 54.5753827,8.218 55.3820534,8.218 L57.2300534,8.218 L57.2300534,5.974 C57.2300534,4.99132842 57.6407159,4.5 58.4620534,4.5 C58.9167223,4.5 59.2283858,4.62833205 59.3970534,4.885 C59.5657209,5.14166795 59.6500534,5.50466432 59.6500534,5.974 L59.6500534,8.218 L60.9920534,8.218 C61.461389,8.218 61.7767192,8.34266542 61.9380534,8.592 C62.0993875,8.84133458 62.1800534,9.13466498 62.1800534,9.472 C62.1800534,9.85333524 62.0993875,10.1613322 61.9380534,10.396 C61.7767192,10.6306678 61.461389,10.748 60.9920534,10.748 L59.6500534,10.748 L59.6500534,10.902 C60.119389,11.635337 60.5373849,12.2916638 60.9040534,12.871 C61.2707219,13.4503362 61.6593846,14.0626634 62.0700534,14.708 C62.4073884,15.2360026 62.5650535,15.697998 62.5430534,16.094 C62.5210532,16.490002 62.3633882,16.7906656 62.0700534,16.996 C61.6887181,17.2600013 61.3477215,17.3516671 61.0470534,17.271 C60.7463852,17.1903329 60.4420549,16.8420031 60.1340534,16.226 C60.0313862,16.0206656 59.9433871,15.8336675 59.8700534,15.665 C59.7967197,15.4963325 59.7233871,15.3386674 59.6500534,15.192 L59.6500534,24.564 C59.6500534,25.0333357 59.5657209,25.3633324 59.3970534,25.554 C59.2283858,25.7446676 58.9167223,25.84 58.4620534,25.84 C58.0513846,25.84 57.7433877,25.7446676 57.5380534,25.554 C57.332719,25.3633324 57.2300534,25.0333357 57.2300534,24.564 L57.2300534,16.402 C57.0980527,16.8273355 56.966054,17.2306648 56.8340534,17.612 C56.7020527,17.9933352 56.5627208,18.352665 56.4160534,18.69 C56.1667188,19.3060031 55.877055,19.6653328 55.5470534,19.768 C55.2170517,19.8706672 54.8833884,19.8193344 54.5460534,19.614 C53.9007168,19.2326648 53.8273842,18.5360051 54.3260534,17.524 C54.5607212,17.0253308 54.7843856,16.5303358 54.9970534,16.039 C55.2097211,15.5476642 55.4223856,15.0306694 55.6350534,14.488 C55.8477211,13.9453306 56.056719,13.3696697 56.2620534,12.761 C56.4673877,12.1523303 56.6800523,11.481337 56.9000534,10.748 L55.3820534,10.748 Z M95.0920534,23.046 C95.0920534,23.4860022 95.0590537,23.8453319 94.9930534,24.124 C94.927053,24.4026681 94.8097209,24.6226659 94.6410534,24.784 C94.4723858,24.9453341 94.2377215,25.055333 93.9370534,25.114 C93.6363852,25.172667 93.2440558,25.202 92.7600534,25.202 L81.1440534,25.202 C80.3960496,25.202 79.8350552,25.0076686 79.4610534,24.619 C79.0870515,24.2303314 78.9000534,23.7060033 78.9000534,23.046 L78.9000534,18.778 C78.9000534,18.1179967 79.0870515,17.5973352 79.4610534,17.216 C79.8350552,16.8346648 80.3960496,16.644 81.1440534,16.644 L92.7600534,16.644 C93.6400578,16.644 94.2487183,16.7943318 94.5860534,17.095 C94.9233884,17.3956682 95.0920534,17.9566626 95.0920534,18.778 L95.0920534,23.046 Z M78.6800534,17.128 C78.0640503,17.4506683 77.6020549,17.5900002 77.2940534,17.546 C76.9860518,17.5019998 76.7513875,17.2966685 76.5900534,16.93 C76.4140525,16.5486648 76.3883861,16.2113348 76.5130534,15.918 C76.6377206,15.6246652 76.9787172,15.3386681 77.5360534,15.06 C78.4160578,14.6346645 79.1237173,14.1873357 79.6590534,13.718 C80.1943894,13.2486643 80.6087186,12.7720024 80.9020534,12.288 L77.6020534,12.288 C77.1767179,12.288 76.8797209,12.1853344 76.7110534,11.98 C76.5423858,11.7746656 76.4580534,11.4960018 76.4580534,11.144 C76.4580534,10.806665 76.5130528,10.5463343 76.6230534,10.363 C76.7330539,10.1796657 76.920052,10.058667 77.1840534,10 C77.1107197,9.95599978 77.0520536,9.8973337 77.0080534,9.824 C76.802719,9.61866564 76.7257198,9.35833491 76.7770534,9.043 C76.8283869,8.72766509 77.0667179,8.35733546 77.4920534,7.932 C77.7853882,7.6386652 78.0787186,7.26100231 78.3720534,6.799 C78.6653882,6.33699769 78.9000525,5.89333546 79.0760534,5.468 C79.2520542,5.04266454 79.4537189,4.76400066 79.6810534,4.632 C79.9083878,4.49999934 80.2347179,4.51466586 80.6600534,4.676 C80.9533882,4.79333392 81.1623861,4.95099901 81.2870534,5.149 C81.4117206,5.34700099 81.4227205,5.6293315 81.3200534,5.996 L86.3360534,5.996 C86.7760556,5.996 87.0767192,6.09133238 87.2380534,6.282 C87.3993875,6.47266762 87.4800534,6.76599802 87.4800534,7.162 C87.4800534,7.54333524 87.3993875,7.82933238 87.2380534,8.02 C87.0767192,8.21066762 86.7760556,8.306 86.3360534,8.306 L84.0040534,8.306 L84.0040534,9.164 C84.0040534,9.44266806 83.9893868,9.70666542 83.9600534,9.956 L86.8860534,9.956 C87.3113888,9.956 87.6083858,10.0439991 87.7770534,10.22 C87.9457209,10.3960009 88.0300534,10.6966645 88.0300534,11.122 C88.0300534,11.4886685 87.9457209,11.7746656 87.7770534,11.98 C87.6083858,12.1853344 87.3113888,12.288 86.8860534,12.288 L85.4120534,12.288 C85.6613879,12.5520013 85.9070521,12.8086654 86.1490534,13.058 C86.3910546,13.3073346 86.614719,13.5419989 86.8200534,13.762 C87.2600556,14.2606692 87.4983865,14.6566652 87.5350534,14.95 C87.5717202,15.2433348 87.4433882,15.5366652 87.1500534,15.83 C86.8567186,16.1233348 86.5487216,16.2553335 86.2260534,16.226 C85.9033851,16.1966665 85.5513886,15.9473357 85.1700534,15.478 L85.1700534,15.5 C84.8620518,15.1479982 84.5467216,14.7850019 84.2240534,14.411 C83.9013851,14.0369981 83.5127223,13.6153357 83.0580534,13.146 C82.6327179,13.938004 82.0497237,14.6676633 81.3090534,15.335 C80.568383,16.0023367 79.6920584,16.5999974 78.6800534,17.128 Z M96.4120534,13.102 C96.4120534,13.5713357 96.3827203,13.9563318 96.3240534,14.257 C96.2653864,14.5576682 96.1553875,14.8033324 95.9940534,14.994 C95.8327192,15.1846676 95.6017215,15.3166663 95.3010534,15.39 C95.0003852,15.4633337 94.6080558,15.5 94.1240534,15.5 L90.6040534,15.5 C90.1200509,15.5 89.7313882,15.4633337 89.4380534,15.39 C89.1447186,15.3166663 88.9173875,15.1920009 88.7560534,15.016 C88.5947192,14.8399991 88.4847203,14.5980015 88.4260534,14.29 C88.3673864,13.9819985 88.3380534,13.5860024 88.3380534,13.102 L88.3380534,8.086 C88.3380534,7.60199758 88.3673864,7.20600154 88.4260534,6.898 C88.4847203,6.58999846 88.5983858,6.34800088 88.7670534,6.172 C88.9357209,5.99599912 89.1667186,5.87500033 89.4600534,5.809 C89.7533882,5.74299967 90.1347177,5.71 90.6040534,5.71 L94.1240534,5.71 C94.5787223,5.71 94.9563852,5.74299967 95.2570534,5.809 C95.5577215,5.87500033 95.7923858,5.99599912 95.9610534,6.172 C96.1297209,6.34800088 96.247053,6.58999846 96.3130534,6.898 C96.3790537,7.20600154 96.4120534,7.60199758 96.4120534,8.086 L96.4120534,13.102 Z M94.1020534,8.438 C94.1020534,8.15933194 93.9260551,8.02 93.5740534,8.02 L91.1320534,8.02 C90.7947183,8.02 90.6260534,8.15933194 90.6260534,8.438 L90.6260534,12.772 C90.6260534,12.9186674 90.659053,13.0249997 90.7250534,13.091 C90.7910537,13.1570003 90.926719,13.19 91.1320534,13.19 L93.5740534,13.19 C93.9260551,13.19 94.1020534,13.0506681 94.1020534,12.772 L94.1020534,8.438 Z M91.9020534,22.98 C92.1660547,22.98 92.3383863,22.9616669 92.4190534,22.925 C92.4997204,22.8883332 92.5400534,22.7673344 92.5400534,22.562 L92.5400534,22.386 C92.5400534,22.1806656 92.4960538,22.0523336 92.4080534,22.001 C92.3200529,21.9496664 92.1513879,21.924 91.9020534,21.924 L82.1340534,21.924 C81.8847188,21.924 81.7197204,21.9569997 81.6390534,22.023 C81.5583863,22.0890003 81.5180534,22.2099991 81.5180534,22.386 L81.5180534,22.562 C81.5180534,22.7673344 81.5583863,22.8883332 81.6390534,22.925 C81.7197204,22.9616669 81.8847188,22.98 82.1340534,22.98 L91.9020534,22.98 Z M91.9020534,19.834 C92.1660547,19.834 92.3383863,19.804667 92.4190534,19.746 C92.4997204,19.687333 92.5400534,19.5553344 92.5400534,19.35 L92.5400534,19.284 C92.5400534,19.0786656 92.4960538,18.9576669 92.4080534,18.921 C92.3200529,18.8843331 92.1513879,18.866 91.9020534,18.866 L82.1340534,18.866 C81.8847188,18.866 81.7197204,18.8916664 81.6390534,18.943 C81.5583863,18.9943336 81.5180534,19.1079991 81.5180534,19.284 L81.5180534,19.35 C81.5180534,19.5553344 81.5583863,19.687333 81.6390534,19.746 C81.7197204,19.804667 81.8847188,19.834 82.1340534,19.834 L91.9020534,19.834 Z M78.9000534,9.714 C78.8413864,9.75800022 78.7900536,9.80199978 78.7460534,9.846 C78.7020531,9.89000022 78.6580536,9.92666652 78.6140534,9.956 L81.6280534,9.956 C81.6720536,9.55999802 81.6940534,9.06133634 81.6940534,8.46 L81.6940534,8.306 L80.1100534,8.306 C79.7433849,8.83400264 79.3400556,9.30333128 78.9000534,9.714 Z" id="极智" fill="#333333"></path>
                </g>
            </g>
        </g>
    </g>
</svg>